<?xml version="1.0" standalone="no"?>
<!DOCTYPE svg PUBLIC "-//W3C//DTD SVG 20010904//EN"
 "http://www.w3.org/TR/2001/REC-SVG-20010904/DTD/svg10.dtd">
<svg version="1.0" xmlns="http://www.w3.org/2000/svg"
 width="700.000000pt" height="700.000000pt" viewBox="0 0 700.000000 700.000000"
 preserveAspectRatio="xMidYMid meet">
<metadata>
Created by potrace 1.11, written by Peter Selinger 2001-2013
</metadata>
<g transform="translate(0.000000,700.000000) scale(0.100000,-0.100000)"
fill="#000000" stroke="none">
<path d="M2005 5575 c-22 -6 -56 -20 -75 -29 -46 -24 -1840 -1825 -1888 -1896
-34 -50 -37 -62 -40 -137 -6 -127 0 -135 373 -511 955 -963 1504 -1511 1532
-1531 109 -74 248 -68 349 14 129 106 144 280 35 414 -19 25 -377 388 -796
809 -418 420 -764 770 -768 778 -4 8 -4 21 0 29 5 8 362 370 793 805 873 878
844 845 843 972 -2 187 -187 334 -358 283z"/>
<path d="M4873 5579 c-60 -11 -114 -42 -157 -89 -93 -103 -107 -244 -36 -352
16 -24 380 -396 808 -826 429 -431 782 -792 785 -802 2 -10 2 -22 -2 -28 -3
-6 -360 -366 -792 -800 -841 -845 -830 -833 -843 -944 -18 -170 128 -326 303
-320 119 4 80 -32 1069 963 499 501 921 931 939 956 62 87 68 214 15 306 -17
29 -371 393 -940 965 -831 838 -917 922 -972 946 -66 30 -115 37 -177 25z"/>
<path d="M4130 5370 c-42 -12 -84 -37 -112 -67 -23 -25 -88 -140 -88 -157 0
-5 -49 -136 -85 -226 -8 -19 -39 -102 -70 -185 -31 -82 -61 -159 -66 -170 -5
-11 -38 -99 -74 -195 -36 -96 -70 -184 -75 -195 -5 -11 -20 -49 -34 -85 -100
-266 -162 -428 -371 -975 -131 -341 -296 -773 -368 -960 -126 -327 -131 -343
-131 -415 0 -85 20 -134 76 -186 50 -48 96 -67 165 -70 142 -6 223 62 287 241
13 39 61 165 106 280 45 116 87 226 94 245 21 59 157 414 166 435 11 26 51
131 84 220 15 39 30 79 35 90 5 11 41 103 79 205 39 102 152 399 252 660 101
261 193 502 205 535 30 82 124 325 135 350 5 11 32 83 62 160 46 123 52 149
53 215 0 111 -42 183 -136 231 -46 23 -141 33 -189 19z"/>
</g>
</svg>
